<?xml version="1.0" encoding="utf-8"?>
<!-- Generator: Adobe Illustrator 17.1.0, SVG Export Plug-In . SVG Version: 6.00 Build 0)  -->
<!DOCTYPE svg PUBLIC "-//W3C//DTD SVG 1.1//EN" "http://www.w3.org/Graphics/SVG/1.1/DTD/svg11.dtd">
<svg version="1.1" id="Layer_1" xmlns="http://www.w3.org/2000/svg" xmlns:xlink="http://www.w3.org/1999/xlink" x="0px" y="0px"
	 viewBox="0 0 612 792" enable-background="new 0 0 612 792" xml:space="preserve">
<path fill="#FFFFFF" d="M577.6,90H34.4C16.1,90,0,105.3,0,123.7v543.9C0,685.9,15.3,702,34.4,702h293V464.9h-79.6v-92.6h79.6v-68.1
	c0-78.8,48.2-121.6,118.6-121.6c33.7,0,62.7,2.3,71.1,3.8V269h-49c-38.2,0-45.9,18.4-45.9,44.4v58.9h90.3l-11.5,91.8h-78.8v237.2
	h155.3c18.4,0,33.7-15.3,33.7-33.7V124.4C612,105.3,596.7,90,577.6,90z"/>
</svg>
