<?xml version="1.0" encoding="utf-8"?>
<!-- Generator: Adobe Illustrator 17.1.0, SVG Export Plug-In . SVG Version: 6.00 Build 0)  -->
<!DOCTYPE svg PUBLIC "-//W3C//DTD SVG 1.1//EN" "http://www.w3.org/Graphics/SVG/1.1/DTD/svg11.dtd">
<svg version="1.1" id="Layer_1" xmlns="http://www.w3.org/2000/svg" xmlns:xlink="http://www.w3.org/1999/xlink" x="0px" y="0px"
	 viewBox="0 0 612 792" enable-background="new 0 0 612 792" xml:space="preserve">
<path fill="#FFFFFF" d="M566.9,90H45.1C19.9,90,0,109.9,0,134.4v524C0,682.1,19.9,702,45.1,702h521.7c25.2,0,45.1-19.9,45.1-44.4
	V134.4C612,109.9,591.3,90,566.9,90z M181.3,611.7H91V319.5h91v292.2H181.3z M136.2,279.7c-29.1,0-52.8-23.7-52.8-52.8
	s23.7-52.8,52.8-52.8s52.8,23.7,52.8,52.8C189,256,165.2,279.7,136.2,279.7z M521.7,611.7h-91V469.4c0-33.7-0.8-77.3-47.4-77.3
	c-47.4,0-54.3,36.7-54.3,75v144.6h-90.3V319.5h87.2v39.8h1.5c12.2-22.9,42.1-47.4,85.7-47.4c91.8,0,108.6,60.4,108.6,139.2V611.7z"
	/>
</svg>
