<?xml version="1.0" encoding="utf-8"?>
<!-- Generator: Adobe Illustrator 17.1.0, SVG Export Plug-In . SVG Version: 6.00 Build 0)  -->
<!DOCTYPE svg PUBLIC "-//W3C//DTD SVG 1.1//EN" "http://www.w3.org/Graphics/SVG/1.1/DTD/svg11.dtd">
<svg version="1.1" id="Layer_1" xmlns="http://www.w3.org/2000/svg" xmlns:xlink="http://www.w3.org/1999/xlink" x="0px" y="0px"
	 viewBox="0 0 80 80" enable-background="new 0 0 80 80" xml:space="preserve">
<g>
	<path fill="#FFFFFF" d="M40,0C17.9,0,0,17.9,0,40c0,16.4,9.8,30.4,23.9,36.6c-0.1-2.8,0-6.1,0.7-9.2c0.8-3.2,5.1-21.8,5.1-21.8
		s-1.3-2.6-1.3-6.3c0-5.9,3.4-10.4,7.7-10.4c3.6,0,5.4,2.7,5.4,6c0,3.7-2.3,9.1-3.5,14.2c-1,4.2,2.1,7.7,6.3,7.7
		c7.6,0,12.7-9.7,12.7-21.3c0-8.8-5.9-15.3-16.6-15.3c-12.1,0-19.7,9-19.7,19.2c0,3.5,1,5.9,2.6,7.8c0.7,0.9,0.8,1.2,0.6,2.2
		c-0.2,0.7-0.6,2.5-0.8,3.2c-0.3,1-1.1,1.4-2,1c-5.6-2.3-8.2-8.4-8.2-15.3c0-11.4,9.6-25,28.6-25c15.3,0,25.3,11.1,25.3,22.9
		c0,15.7-8.7,27.4-21.6,27.4c-4.3,0-8.4-2.3-9.8-5c0,0-2.3,9.2-2.8,11c-0.8,3.1-2.5,6.2-4,8.6C32.3,79.4,36.1,80,40,80
		c22.1,0,40-17.9,40-40C80,17.9,62.1,0,40,0z"/>
</g>
</svg>
