<?xml version="1.0" encoding="utf-8"?>
<!-- Generator: Adobe Illustrator 16.0.0, SVG Export Plug-In . SVG Version: 6.00 Build 0)  -->
<!DOCTYPE svg PUBLIC "-//W3C//DTD SVG 1.1//EN" "http://www.w3.org/Graphics/SVG/1.1/DTD/svg11.dtd">
<svg version="1.1" id="Your_Icon" xmlns="http://www.w3.org/2000/svg" xmlns:xlink="http://www.w3.org/1999/xlink" x="0px" y="0px"
	 width="100px" height="100px" viewBox="0 0 100 100" enable-background="new 0 0 100 100" xml:space="preserve">
<path fill="#FFFFFF" d="M91.25,24.75c-7.875-6-25.375-6.293-41.25-6.293l0,0c-15.875,0-33.375,0.293-41.25,6.293
	s-8.125,19-8.125,26.75s0.25,20.75,8.125,26.75S34.125,84.544,50,84.544v-0.001c15.875,0,33.375-0.293,41.25-6.293
	s8.125-19,8.125-26.75S99.125,30.75,91.25,24.75z M65.646,53.248l0.002,0.004L38.823,67.548c-0.144,0.104-0.301,0.187-0.47,0.251
	l-0.033,0.018l-0.002-0.006c-0.217,0.078-0.448,0.127-0.692,0.127c-1.139,0-2.062-0.924-2.062-2.062V37.062
	c0-1.139,0.924-2.062,2.062-2.062c0.321,0,0.622,0.08,0.893,0.211l0.001-0.001l27.128,14.542v0.002
	c0.584,0.364,0.978,1.008,0.978,1.747C66.625,52.24,66.23,52.884,65.646,53.248z"/>
</svg>
