<?xml version="1.0" encoding="utf-8"?>
<!-- Generator: Adobe Illustrator 16.0.0, SVG Export Plug-In . SVG Version: 6.00 Build 0)  -->
<!DOCTYPE svg PUBLIC "-//W3C//DTD SVG 1.1//EN" "http://www.w3.org/Graphics/SVG/1.1/DTD/svg11.dtd">
<svg version="1.1" id="Layer_1" xmlns="http://www.w3.org/2000/svg" xmlns:xlink="http://www.w3.org/1999/xlink" x="0px" y="0px"
	 width="100px" height="100px" viewBox="0 0 100 100" enable-background="new 0 0 100 100" xml:space="preserve">
<path fill="#9898A0" d="M74.369,61.436c-3.535,0-6.746,1.354-9.17,3.56L39.106,51.689c0.104-0.679,0.174-1.369,0.174-2.078
	c0-0.399-0.026-0.792-0.06-1.183L65.561,35c2.379,2.012,5.449,3.23,8.81,3.23c7.537,0,13.647-6.11,13.647-13.648
	s-6.11-13.65-13.647-13.65c-7.539,0-13.649,6.111-13.649,13.65c0,0.416,0.025,0.826,0.062,1.232L34.476,39.227
	c-2.382-2.031-5.467-3.264-8.843-3.264c-7.538,0-13.65,6.111-13.65,13.649c0,7.539,6.112,13.649,13.65,13.649
	c3.04,0,5.837-1.006,8.105-2.686L60.756,74.35c-0.013,0.244-0.037,0.485-0.037,0.732c0,7.539,6.111,13.648,13.65,13.648
	c7.537,0,13.648-6.109,13.648-13.648C88.018,67.546,81.906,61.436,74.369,61.436z"/>
</svg>
