<?xml version="1.0" encoding="utf-8"?>
<!-- Generator: Adobe Illustrator 16.0.0, SVG Export Plug-In . SVG Version: 6.00 Build 0)  -->
<!DOCTYPE svg PUBLIC "-//W3C//DTD SVG 1.1//EN" "http://www.w3.org/Graphics/SVG/1.1/DTD/svg11.dtd">
<svg version="1.1" id="Layer_1" xmlns="http://www.w3.org/2000/svg" xmlns:xlink="http://www.w3.org/1999/xlink" x="0px" y="0px"
	 width="792px" height="612px" viewBox="0 0 792 612" enable-background="new 0 0 792 612" xml:space="preserve">
<g>
	<path id="The_Sharpness" opacity="0.12" fill="#3C1312" enable-background="new    " d="M332.964,213.588l145.044,96.696
		l20.196-10.404L332.964,213.588z"/>
	<g id="Lozenge">
		<g>
			<path fill="#FFFFFF" d="M695.88,183.6c0,0-6.12-42.228-24.479-60.588c-23.257-24.48-49.572-24.48-61.2-25.704
				c-85.681-6.12-214.2-6.12-214.2-6.12l0,0c0,0-128.52,0-214.2,6.12c-12.24,1.224-37.944,1.836-61.2,25.704
				c-18.36,18.36-24.48,60.588-24.48,60.588S90,233.172,90,282.744v46.512c0,49.572,6.12,99.145,6.12,99.145
				s6.12,42.228,24.48,60.588c23.256,24.479,53.856,23.868,67.32,26.315c48.96,4.896,208.08,6.12,208.08,6.12s128.52,0,214.2-6.12
				c12.24-1.224,37.943-1.836,61.2-25.704c18.359-18.359,24.479-60.588,24.479-60.588S702,379.44,702,329.868v-46.512
				C702,233.172,695.88,183.6,695.88,183.6z M332.964,385.56V213.588l165.24,86.292L332.964,385.56z"/>
		</g>
	</g>
</g>
</svg>
