<?xml version="1.0" encoding="utf-8"?>
<!-- Generator: Adobe Illustrator 17.1.0, SVG Export Plug-In . SVG Version: 6.00 Build 0)  -->
<!DOCTYPE svg PUBLIC "-//W3C//DTD SVG 1.1//EN" "http://www.w3.org/Graphics/SVG/1.1/DTD/svg11.dtd">
<svg version="1.1" id="Layer_1" xmlns="http://www.w3.org/2000/svg" xmlns:xlink="http://www.w3.org/1999/xlink" x="0px" y="0px"
	 viewBox="0 0 100 100" enable-background="new 0 0 100 100" xml:space="preserve">
<path fill="#FFFFFF" d="M45.3,4.7C46.1,5.2,46.9,6,47.9,7c0.9,1,1.9,2.3,2.8,3.8c0.9,1.4,1.6,3.1,2.3,5c0.5,1.9,0.8,4.2,0.8,6.7
	c-0.1,4.7-1.1,8.5-3,11.3c-0.9,1.4-1.9,2.6-3,3.8c-1.2,1.2-2.4,2.3-3.7,3.5c-0.7,0.8-1.4,1.7-2.1,2.8c-0.7,1.1-1.1,2.3-1.1,3.7
	s0.4,2.5,1.1,3.4c0.6,0.9,1.3,1.6,1.9,2.2l4.2,3.7c2.6,2.3,4.9,4.8,6.9,7.5c1.9,2.8,2.8,6.4,2.9,10.9c0,6.4-2.7,12-8,16.9
	c-5.5,5.1-13.5,7.7-24,7.9c-8.8-0.1-15.3-2-19.6-5.9C2.2,90.5,0,86.3,0,81.3c0-2.4,0.7-5.1,2.1-8.1s3.9-5.6,7.5-7.9
	c4-2.4,8.3-4.1,12.8-4.9c4.4-0.7,8.1-1.1,11-1.2c-0.9-1.2-1.7-2.6-2.4-4c-0.8-1.4-1.2-3-1.2-5c0-1.2,0.2-2.1,0.5-2.9
	c0.3-0.8,0.5-1.6,0.8-2.3c-1.4,0.2-2.8,0.3-4,0.3c-6.7-0.1-11.7-2.3-15.2-6.6c-3.6-4-5.5-8.7-5.5-14c0-6.4,2.6-12.3,7.8-17.6
	c3.6-3.1,7.2-5.1,11.1-6C28.8,0.4,32.4,0,35.7,0h25L53,4.7H45.3z M50.1,80.3c0-3.3-1-6.2-3.1-8.7c-2.2-2.4-5.6-5.2-10.3-8.7
	c-0.8-0.1-1.7-0.1-2.8-0.1c-0.6-0.1-2.3,0-4.9,0.3c-2.6,0.4-5.2,1-7.9,1.9c-0.6,0.3-1.5,0.6-2.7,1.2s-2.3,1.3-3.5,2.4
	s-2.1,2.4-2.9,4c-0.9,1.7-1.4,3.7-1.4,6c0,4.6,2,8.4,6,11.4c3.8,3,9,4.5,15.5,4.6c5.9-0.1,10.4-1.5,13.5-4.1
	C48.6,87.8,50.1,84.4,50.1,80.3z M32.7,41.8c3.3-0.1,6-1.4,8.2-3.7c1.1-1.7,1.7-3.4,2-5.1c0.2-1.8,0.3-3.2,0.3-4.4
	c0-5.2-1.3-10.4-3.8-15.7c-1.2-2.5-2.7-4.6-4.7-6.2c-2-1.5-4.2-2.3-6.8-2.4c-3.4,0.1-6.2,1.5-8.4,4.3c-1.9,2.9-2.8,6.2-2.7,9.8
	c0,4.8,1.3,9.7,4,14.8c1.3,2.4,2.9,4.4,5,6.1C27.8,41,30.1,41.8,32.7,41.8z"/>
<path fill="#FFFFFF" d="M45.3,4.7C46.1,5.2,46.9,6,47.9,7c0.9,1,1.9,2.3,2.8,3.8c0.9,1.4,1.6,3.1,2.3,5c0.5,1.9,0.8,4.2,0.8,6.7
	c-0.1,4.7-1.1,8.5-3,11.3c-0.9,1.4-1.9,2.6-3,3.8c-1.2,1.2-2.4,2.3-3.7,3.5c-0.7,0.8-1.4,1.7-2.1,2.8c-0.7,1.1-1.1,2.3-1.1,3.7
	s0.4,2.5,1.1,3.4c0.6,0.9,1.3,1.6,1.9,2.2l4.2,3.7c2.6,2.3,4.9,4.8,6.9,7.5c1.9,2.8,2.8,6.4,2.9,10.9c0,6.4-2.7,12-8,16.9
	c-5.5,5.1-13.5,7.7-24,7.9c-8.8-0.1-15.3-2-19.6-5.9C2.2,90.5,0,86.3,0,81.3c0-2.4,0.7-5.1,2.1-8.1s3.9-5.6,7.5-7.9
	c4-2.4,8.3-4.1,12.8-4.9c4.4-0.7,8.1-1.1,11-1.2c-0.9-1.2-1.7-2.6-2.4-4c-0.8-1.4-1.2-3-1.2-5c0-1.2,0.2-2.1,0.5-2.9
	c0.3-0.8,0.5-1.6,0.8-2.3c-1.4,0.2-2.8,0.3-4,0.3c-6.7-0.1-11.7-2.3-15.2-6.6c-3.6-4-5.5-8.7-5.5-14c0-6.4,2.6-12.3,7.8-17.6
	c3.6-3.1,7.2-5.1,11.1-6C28.8,0.4,32.4,0,35.7,0h25L53,4.7H45.3z M50.1,80.3c0-3.3-1-6.2-3.1-8.7c-2.2-2.4-5.6-5.2-10.3-8.7
	c-0.8-0.1-1.7-0.1-2.8-0.1c-0.6-0.1-2.3,0-4.9,0.3c-2.6,0.4-5.2,1-7.9,1.9c-0.6,0.3-1.5,0.6-2.7,1.2s-2.3,1.3-3.5,2.4
	s-2.1,2.4-2.9,4c-0.9,1.7-1.4,3.7-1.4,6c0,4.6,2,8.4,6,11.4c3.8,3,9,4.5,15.5,4.6c5.9-0.1,10.4-1.5,13.5-4.1
	C48.6,87.8,50.1,84.4,50.1,80.3z M32.7,41.8c3.3-0.1,6-1.4,8.2-3.7c1.1-1.7,1.7-3.4,2-5.1c0.2-1.8,0.3-3.2,0.3-4.4
	c0-5.2-1.3-10.4-3.8-15.7c-1.2-2.5-2.7-4.6-4.7-6.2c-2-1.5-4.2-2.3-6.8-2.4c-3.4,0.1-6.2,1.5-8.4,4.3c-1.9,2.9-2.8,6.2-2.7,9.8
	c0,4.8,1.3,9.7,4,14.8c1.3,2.4,2.9,4.4,5,6.1C27.8,41,30.1,41.8,32.7,41.8z"/>
<polygon fill="#FFFFFF" points="100,40.9 99.7,40.9 86.5,40.9 86.5,26.8 78.8,26.8 78.8,40.9 65.7,40.9 65.6,40.9 65.6,48.7 
	65.7,48.7 65.7,49 78.8,49 78.8,62.7 78.9,62.7 86.4,62.7 86.5,62.7 86.5,49 100,49 "/>
</svg>
