<?xml version="1.0" encoding="utf-8"?>
<!-- Generator: Adobe Illustrator 17.1.0, SVG Export Plug-In . SVG Version: 6.00 Build 0)  -->
<!DOCTYPE svg PUBLIC "-//W3C//DTD SVG 1.1//EN" "http://www.w3.org/Graphics/SVG/1.1/DTD/svg11.dtd">
<svg version="1.1" id="Layer_1" xmlns="http://www.w3.org/2000/svg" xmlns:xlink="http://www.w3.org/1999/xlink" x="0px" y="0px"
	 viewBox="0 0 612 792" enable-background="new 0 0 612 792" xml:space="preserve">
<polygon fill="#231F20" points="541,90 71,90 71,90 "/>
<path fill="none" d="M541,90c39.2,0,71,31.8,71,71v470c0,39.2-31.8,71-71,71H71c-39.2,0-71-31.8-71-71V161c0-39.2,31.8-71,71-71H0
	v612h612V90H541z"/>
<circle fill="none" cx="306" cy="396" r="117.5"/>
<path fill="none" d="M445.5,278.5h71c12.2,0,24.5-9.8,24.5-22V183c0-12.2-9.8-24.5-24.5-24.5h-71c-12.2,0-24.5,9.8-24.5,24.5v71
	C423.5,266.3,433.3,278.5,445.5,278.5z"/>
<path fill="none" d="M93,631h423.5c12.2,0,24.5-9.8,24.5-24.5v-257h-53.9c2.4,14.7,4.9,29.4,4.9,46.5
	c0,102.8-85.7,188.5-188.5,188.5S115.1,498.8,115.1,396c0-17.1,2.4-31.8,4.9-46.5H71V609C71,618.8,80.8,631,93,631z"/>
<path fill="#FFFFFF" d="M0,161v470c0,39.2,31.8,71,71,71h470c39.2,0,71-31.8,71-71V161c0-39.2-31.8-71-71-71H71
	C31.8,90,0,121.8,0,161z M423.5,183c0-12.2,9.8-24.5,24.5-24.5h71c12.2,0,24.5,9.8,24.5,24.5v71c0,12.2-9.8,22-24.5,22h-71
	c-12.2,0-24.5-9.8-24.5-22V183L423.5,183z M306,278.5c63.6,0,117.5,53.9,117.5,117.5S372.1,513.5,306,513.5S188.5,462.1,188.5,396
	C188.5,329.9,239.9,278.5,306,278.5z M71,349.5h53.9c-4.9,14.7-4.9,29.4-4.9,46.5c0,102.8,83.2,188.5,188.5,188.5
	c102.8,0,188.5-85.7,188.5-188.5c0-17.1-2.4-31.8-4.9-46.5h53.9V609c0,12.2-9.8,24.5-24.5,24.5H93c-12.2,0-24.5-9.8-24.5-24.5
	L71,349.5L71,349.5z"/>
</svg>
