<?xml version="1.0" encoding="utf-8"?>
<!-- Generator: Adobe Illustrator 16.0.0, SVG Export Plug-In . SVG Version: 6.00 Build 0)  -->
<!DOCTYPE svg PUBLIC "-//W3C//DTD SVG 1.1//EN" "http://www.w3.org/Graphics/SVG/1.1/DTD/svg11.dtd">
<svg version="1.1" id="Layer_1" xmlns="http://www.w3.org/2000/svg" xmlns:xlink="http://www.w3.org/1999/xlink" x="0px" y="0px"
	 width="195px" height="120px" viewBox="0 0 195 120" enable-background="new 0 0 195 120" xml:space="preserve">
<g>
	<defs>
		<rect id="SVGID_1_" width="195" height="120"/>
	</defs>
	<clipPath id="SVGID_2_">
		<use xlink:href="#SVGID_1_"  overflow="visible"/>
	</clipPath>
	<path clip-path="url(#SVGID_2_)" fill-rule="evenodd" clip-rule="evenodd" fill="#ED1C24" d="M134.001,34.284
		c-13.917,0-25.197,11.282-25.197,25.199c0,13.916,11.28,25.198,25.197,25.198s25.198-11.282,25.198-25.198
		C159.199,45.566,147.918,34.284,134.001,34.284 M134.001,73.4c-7.686,0-13.917-6.231-13.917-13.917
		c0-7.687,6.231-13.918,13.917-13.918c7.687,0,13.917,6.231,13.917,13.918C147.918,67.169,141.688,73.4,134.001,73.4"/>
	<path clip-path="url(#SVGID_2_)" fill-rule="evenodd" clip-rule="evenodd" fill="#ED1C24" d="M70.224,51.179
		c-4.586,0-8.304,3.718-8.304,8.304c0,4.585,3.718,8.304,8.304,8.304s8.304-3.719,8.304-8.304
		C78.528,54.896,74.81,51.179,70.224,51.179"/>
	<path clip-path="url(#SVGID_2_)" fill="#58595B" d="M134.001,8.997c-15.654,0-29.633,7.134-38.89,18.321l10.818,9.078
		c7.054-8.576,17.927-13.888,30.041-13.247c18.627,0.985,33.651,16.221,34.388,34.859c0.821,20.767-15.772,37.862-36.357,37.862
		c-11.061,0-20.942-4.957-27.612-12.749L95.57,92.198c9.639,11.318,24.178,18.333,40.344,17.735
		c26.652-0.986,48.127-22.934,48.566-49.6C184.946,32.062,162.167,8.997,134.001,8.997"/>
	<path clip-path="url(#SVGID_2_)" fill="#ED1C24" d="M102.291,41.643l-12.209-7.05c-2.162,3.806-3.841,7.921-4.963,12.26
		l13.628,3.651C99.544,47.37,100.739,44.394,102.291,41.643"/>
	<path clip-path="url(#SVGID_2_)" fill="#ED1C24" d="M98.111,53.623L84.206,51.17c-0.451,2.704-0.691,5.48-0.691,8.312
		c0,9.343,2.548,18.086,6.971,25.592l12.21-7.049c-3.225-5.431-5.081-11.769-5.081-18.543
		C97.615,57.484,97.797,55.532,98.111,53.623"/>
	<path clip-path="url(#SVGID_2_)" fill="#ED1C24" d="M45.321,90.639c-0.815,0-1.477-0.661-1.477-1.478V59.864
		c0-7.061-3.688-9.485-9.379-9.485c-5.04,0-9.02,2.7-11.294,5.61c-0.2,0.255-0.299,0.573-0.299,0.897v32.274
		c0,0.816-0.661,1.478-1.477,1.478H10.964c-0.815,0-1.476-0.661-1.476-1.478v-47.95c0-0.815,0.661-1.476,1.476-1.476h10.431
		c0.816,0,1.477,0.661,1.477,1.476v1.616c0,1.247,1.458,1.945,2.411,1.14c3.531-2.984,8.804-5.497,15.4-5.497
		c11.171,0,16.546,6.324,16.546,16.23v34.46c0,0.816-0.661,1.478-1.476,1.478H45.321z"/>
</g>
</svg>
