<?xml version="1.0" encoding="utf-8"?>
<!-- Generator: Adobe Illustrator 17.1.0, SVG Export Plug-In . SVG Version: 6.00 Build 0)  -->
<!DOCTYPE svg PUBLIC "-//W3C//DTD SVG 1.1//EN" "http://www.w3.org/Graphics/SVG/1.1/DTD/svg11.dtd">
<svg version="1.1" id="Layer_1" xmlns="http://www.w3.org/2000/svg" xmlns:xlink="http://www.w3.org/1999/xlink" x="0px" y="0px"
	 viewBox="0 0 612 792" enable-background="new 0 0 612 792" xml:space="preserve">
<path fill="#FFFFFF" d="M612,206.3c-23,9.9-46.7,16.8-72.7,19.9c26-15.3,45.9-39.8,55.1-69.6c-24.5,14.5-51.3,25.2-79.6,30.6
	c-23-24.5-55.8-39.8-91-39.8c-69.6,0-125.5,56.6-125.5,125.5c0,9.9,1.5,19.9,3.1,28.3c-104.8-5.4-196.6-55.1-258.6-130.8
	c-11.5,18.4-17.6,39.8-17.6,62.7c0,43.6,22.2,82.6,55.8,104.8c-21.4-0.8-39.8-6.1-56.6-16.1c0,0.8,0,1.5,0,1.5
	c0,60.4,43.6,110.9,101,123.2c-10.7,3.1-21.4,4.6-32.9,4.6c-8.4,0-16.1-0.8-24.5-2.3c16.1,49.7,62.7,85.7,117.8,86.4
	c-42.8,33.7-97.2,53.5-156.1,53.5c-10.7,0-20.7-0.8-29.8-1.5c55.8,35.2,121.6,56.6,192,56.6c230.3,0,357.3-192,357.3-357.3
	c0-5.4,0-11.5-0.8-16.8C574.5,252.9,594.4,230.8,612,206.3z"/>
</svg>
