<?xml version="1.0" encoding="utf-8"?>
<!-- Generator: Adobe Illustrator 17.1.0, SVG Export Plug-In . SVG Version: 6.00 Build 0)  -->
<!DOCTYPE svg PUBLIC "-//W3C//DTD SVG 1.1//EN" "http://www.w3.org/Graphics/SVG/1.1/DTD/svg11.dtd">
<svg version="1.1" id="Layer_1" xmlns="http://www.w3.org/2000/svg" xmlns:xlink="http://www.w3.org/1999/xlink" x="0px" y="0px"
	 viewBox="0 0 100 100" enable-background="new 0 0 100 100" xml:space="preserve">
<g>
	<path id="The_Sharpness" opacity="0.12" fill-rule="evenodd" clip-rule="evenodd" fill="#3C1312" d="M39.7,34.9l23.7,15.8l3.3-1.7
		L39.7,34.9z"/>
	<g id="Lozenge">
		<g>
			<path fill="#8B191B" d="M99,30c0,0-1-6.9-4-9.9c-3.8-4-8.1-4-10-4.2c-14-1-35-1-35-1h0c0,0-21,0-35,1c-2,0.2-6.2,0.3-10,4.2
				c-3,3-4,9.9-4,9.9s-1,8.1-1,16.2v7.6C0,61.9,1,70,1,70s1,6.9,4,9.9c3.8,4,8.8,3.9,11,4.3c8,0.8,34,1,34,1s21,0,35-1
				c2-0.2,6.2-0.3,10-4.2c3-3,4-9.9,4-9.9s1-8.1,1-16.2v-7.6C100,38.1,99,30,99,30z M39.7,63l0-28.1l27,14.1L39.7,63z"/>
		</g>
	</g>
</g>
</svg>
